<svg xmlns="http://www.w3.org/2000/svg" width="234" height="40" viewBox="0 0 234 40"><path d="M15.76,27.77A32.33,32.33,0,0,1,20.22,24l.62-.44.64-.43q2.26-1.56,5.12-3.18l.62-.36.61-.33a3.54,3.54,0,0,1,.33-.19c2.67-1.48,5.09-2.69,7.18-3.62a36.58,36.58,0,0,0,.46-6,11.56,11.56,0,0,0-.41-3.09,3.5,3.5,0,0,0-.74-1.4,1.68,1.68,0,0,0-1.14-.54h0a3.51,3.51,0,0,0-1.74.43,18.07,18.07,0,0,0-4.43,3.55c-.39.41-.83.88-1.29,1.39l-.62.69-.48.57c-.16.2-.33.38-.48.57-1.07,1.27-2.2,2.71-3.39,4.3-.1.12-.19.24-.28.37s-.11.14-.16.2l-.44.61c-3.51,4.79-5.83,8.79-6.91,11.92a8.22,8.22,0,0,0-.43,5.29.68.68,0,0,1,0-.14c-.22-2,.77-4.1,2.92-6.38" style="fill:#2695f4"/><path d="M11,8.34A34.79,34.79,0,0,0,6.32,5.15a13.69,13.69,0,0,0-2.13-1,6,6,0,0,0-1.46-.31,2.57,2.57,0,0,0-.83.05,1.67,1.67,0,0,0-1,.71A3.46,3.46,0,0,0,.38,6.33a17.45,17.45,0,0,0,.85,5.56c.15.55.33,1.14.54,1.8.72,2.21,1.72,4.81,3,7.73a69.16,69.16,0,0,0,4.74,9.32,55.94,55.94,0,0,1,.25-14.22c.37-3.14.8-5.89,1.29-8.18" style="fill:#21cb97"/><path d="M19.56,15.7l.11-.15.39-.52c1.29-1.72,2.52-3.25,3.66-4.59l-.3-.81A38.39,38.39,0,0,0,20.5,3.36,11.49,11.49,0,0,0,18.62.91,3.56,3.56,0,0,0,17.29.08,1.8,1.8,0,0,0,16.9,0,1.65,1.65,0,0,0,16,.18a3.43,3.43,0,0,0-1.27,1.24,17.37,17.37,0,0,0-2,5.24c-.09.37-.19.75-.28,1.18,0,.21-.1.42-.15.65v0l-.15.7c-.42,2.12-.8,4.62-1.13,7.44-.75,6.31-.79,11.24-.13,14.64a11.13,11.13,0,0,0,.3,1.29,12.3,12.3,0,0,1,.76-3.94c1.15-3.31,3.61-7.55,7.35-12.58.09-.13.18-.26.28-.38" style="fill:#0082f2"/><path d="M45.65,15.78a1.69,1.69,0,0,0-.81-.95,3.51,3.51,0,0,0-1.75-.33,17.71,17.71,0,0,0-5.45,1.39l-1.49.61-.25.11-.44.19-.7.32c-1.86.86-4,1.93-6.26,3.2-.32.18-.65.36-1,.55s-.53.29-.78.44l-.92.54q-2.47,1.45-4.46,2.84l-.56.4c-.18.12-.35.26-.53.39a30.08,30.08,0,0,0-3.78,3.26c-1.86,2-2.72,3.75-2.55,5.3,0,.09,0,.18,0,.28a3.84,3.84,0,0,0,.72,1.56l.15.12v.07a5.08,5.08,0,0,0,.7.69l.17.14a2.43,2.43,0,0,0,.25.2h0l.54.36.33.19.35.19.14.08c.27.14.55.27.85.4l.11,0c.4.18.84.34,1.29.5A28.67,28.67,0,0,0,24.35,40a4.45,4.45,0,0,1,.25-2.5A2.85,2.85,0,0,1,25,37a1.92,1.92,0,0,1,.28-.29,3.45,3.45,0,0,1,.59-.41h0a4.35,4.35,0,0,1,.59-.25,11.6,11.6,0,0,1,3.15-.41l.65,0h.66a7.16,7.16,0,0,0,3.82-.81,50.67,50.67,0,0,0,6.75-8.42,38.87,38.87,0,0,0,3.4-6A10.11,10.11,0,0,0,45.76,17a3.1,3.1,0,0,0-.12-1.25M18,37.73h0" style="fill:#4da8f6"/><path d="M135.44,16.25a13.21,13.21,0,0,0-6.32-4.48,24.71,24.71,0,0,0-15.26,0,13,13,0,0,0-6.3,4.48q-2.53,3.22-2.62,9.06c.07,3.84.94,6.83,2.63,9a13.3,13.3,0,0,0,6.32,4.49,24.33,24.33,0,0,0,15.23,0,13.34,13.34,0,0,0,6.32-4.49q2.53-3.22,2.64-9-.11-5.83-2.64-9.06m-9.5,13.84a4.79,4.79,0,0,1-8.88,0,11.08,11.08,0,0,1-.84-4.66,11.31,11.31,0,0,1,.83-4.7,5,5,0,0,1,2-2.32,5.07,5.07,0,0,1,4.87,0,4.89,4.89,0,0,1,2,2.32,11.14,11.14,0,0,1,.85,4.7,10.93,10.93,0,0,1-.85,4.66" style="fill:#293141"/><path d="M183.59,16.25a13.21,13.21,0,0,0-6.32-4.48,24.71,24.71,0,0,0-15.26,0,13,13,0,0,0-6.3,4.48q-2.53,3.22-2.62,9.06c.07,3.84.94,6.83,2.63,9A13.3,13.3,0,0,0,162,38.78a24.36,24.36,0,0,0,15.24,0,13.32,13.32,0,0,0,6.31-4.49q2.53-3.22,2.64-9-.1-5.83-2.64-9.06m-9.5,13.84a4.79,4.79,0,0,1-8.88,0,11.08,11.08,0,0,1-.84-4.66,11.31,11.31,0,0,1,.83-4.7,4.8,4.8,0,0,1,6.88-2.32,4.89,4.89,0,0,1,2,2.32,11.14,11.14,0,0,1,.85,4.7,10.93,10.93,0,0,1-.85,4.66" style="fill:#293141"/><path d="M228.09,10.56h-5.76V34.5a5.67,5.67,0,0,0,5.53,5.5h5.76V16a5.64,5.64,0,0,0-5.53-5.47" style="fill:#293141"/><path d="M145.71,0h-5.77V34.51A5.67,5.67,0,0,0,145.4,40h5.84V5.56A5.64,5.64,0,0,0,145.7,0" style="fill:#293141"/><path d="M233.62,0H226.7a4.37,4.37,0,0,0-4.37,4.37V8.68h5.56A5.72,5.72,0,0,0,233.62,3Z" style="fill:#21cb97"/><path d="M103.1,23.91a13,13,0,0,0-.81-5.17,9.09,9.09,0,0,0-1.39-2.49,13.08,13.08,0,0,0-6.29-4.49A22.89,22.89,0,0,0,87,10.56h-.13a22.85,22.85,0,0,0-7.65,1.2,13.62,13.62,0,0,0-3,1.41,13.27,13.27,0,0,0-3-1.41,24.86,24.86,0,0,0-15.26,0,13.13,13.13,0,0,0-6.29,4.48c-1.53,2-2.19,4.36-2.22,7.74l0,16H60.72V25.29a10.65,10.65,0,0,1,.79-4.43,5.24,5.24,0,0,1,1.09-1.59,3.38,3.38,0,0,1,.8-.59l.28-.14a3.69,3.69,0,0,1,.58-.23A5,5,0,0,1,66,18.1a4.43,4.43,0,0,1,.51.06,1.09,1.09,0,0,1,.25,0l.13,0a6.57,6.57,0,0,1,1.11.44,4.71,4.71,0,0,1,1.9,2.19,11,11,0,0,1,.8,4.38l0,14.76H81.91v-.32l0,.32,0-10.82V25a10.63,10.63,0,0,1,.79-4.17,4.59,4.59,0,0,1,1.9-2.18,5.38,5.38,0,0,1,1.11-.45l.12,0a2.27,2.27,0,0,1,.25-.06l.51-.06a4.88,4.88,0,0,1,1.74.23,3.18,3.18,0,0,1,.58.23,1.75,1.75,0,0,1,.28.13,3.56,3.56,0,0,1,.8.6,5.57,5.57,0,0,1,1.09,1.58,10.71,10.71,0,0,1,.78,4.44v.12l0,14.59H103.1V23.91" style="fill:#293141"/><path d="M220.48,23.92a13,13,0,0,0-.81-5.17,9.29,9.29,0,0,0-1.39-2.5,13.11,13.11,0,0,0-6.3-4.48,23.16,23.16,0,0,0-7-1.18c-.64,0-1.29,0-1.93,0a22.53,22.53,0,0,0-5.23.81c-.42.11-.84.21-1.25.35a12.9,12.9,0,0,0-2.95,1.41h0a13.34,13.34,0,0,0-3.34,3.06c-1.53,2-2.16,3.94-2.19,7.32V40h11.25v-.34l0-10.47V25a10.48,10.48,0,0,1,.79-4.17A4.61,4.61,0,0,1,202,18.68a5.7,5.7,0,0,1,1.12-.45l.12,0a2.27,2.27,0,0,1,.25-.06l.51-.06a4.83,4.83,0,0,1,1.73.23,3.28,3.28,0,0,1,.59.23.82.82,0,0,1,.19.09l.15.07a3.74,3.74,0,0,1,.74.57,5.72,5.72,0,0,1,1.09,1.58,10.47,10.47,0,0,1,.77,4.17V40h11.25V23.92" style="fill:#293141"/></svg>