<svg xmlns="http://www.w3.org/2000/svg" viewBox="0 0 300 232"><defs><style>.cls-1{opacity:.2}.cls-1,.cls-2,.cls-3{fill:#b6c3d5}.cls-3{opacity:.5}</style></defs><g id="Layer_1" data-name="Layer 1"><path class="cls-2" d="M290.97 101.83c-4.6 0-8.34 3.74-8.34 8.35s3.74 8.34 8.34 8.34 8.35-3.74 8.35-8.34-3.75-8.35-8.35-8.35Zm0 11.02c-1.47 0-2.67-1.2-2.67-2.67s1.2-2.68 2.67-2.68 2.68 1.2 2.68 2.68-1.2 2.67-2.68 2.67ZM123.85 23.05c0 3.96-3.22 7.18-7.18 7.18s-7.17-3.22-7.17-7.18 3.22-7.17 7.17-7.17 7.18 3.22 7.18 7.17ZM209.36 4.95c0 2.18-1.78 3.95-3.96 3.95s-3.95-1.77-3.95-3.95S203.22.99 205.4.99s3.96 1.77 3.96 3.96Z"/><circle class="cls-2" cx="190.22" cy="226.75" r="4.26"/><path class="cls-2" d="M279.65 198.83c0 2.35-1.91 4.26-4.26 4.26s-4.26-1.91-4.26-4.26 1.91-4.26 4.26-4.26 4.26 1.91 4.26 4.26ZM9.35 163.82c0 2.35-1.91 4.26-4.26 4.26s-4.26-1.91-4.26-4.26 1.91-4.26 4.26-4.26 4.26 1.91 4.26 4.26ZM56.32 18.8c0 2.35-1.91 4.26-4.26 4.26s-4.26-1.91-4.26-4.26 1.91-4.26 4.26-4.26 4.26 1.91 4.26 4.26ZM49.92 98.67l2.47-2.47a1.503 1.503 0 0 0-2.12-2.13l-2.47 2.48-2.48-2.48c-.59-.58-1.54-.58-2.12 0-.59.59-.59 1.54 0 2.13l2.47 2.47-2.47 2.48a1.49 1.49 0 0 0 0 2.12c.29.29.67.44 1.06.44s.77-.15 1.06-.44l2.48-2.47 2.47 2.47c.29.29.68.44 1.06.44s.77-.15 1.06-.44c.59-.59.59-1.54 0-2.12l-2.47-2.48ZM243.84 140.34l1.75-1.76c.42-.41.42-1.09 0-1.51-.41-.42-1.09-.42-1.51 0l-1.75 1.76-1.76-1.76c-.42-.42-1.09-.42-1.51 0-.42.42-.42 1.09 0 1.51l1.76 1.76-1.76 1.75c-.42.42-.42 1.09 0 1.51.21.21.48.31.75.31s.54-.1.75-.31l1.76-1.75 1.75 1.75c.21.21.48.31.75.31s.55-.1.75-.31c.42-.41.42-1.09 0-1.51l-1.75-1.75ZM268.23 63.21l4.17-4.18c.58-.58.58-1.53 0-2.12a1.49 1.49 0 0 0-2.12 0l-4.17 4.18-4.18-4.18a1.49 1.49 0 0 0-2.12 0 1.49 1.49 0 0 0 0 2.12l4.18 4.18-4.18 4.17a1.49 1.49 0 0 0 0 2.12c.29.29.68.44 1.06.44s.77-.15 1.06-.44l4.18-4.17 4.17 4.17c.29.29.67.44 1.06.44s.76-.15 1.06-.44c.58-.59.58-1.54 0-2.12l-4.17-4.17ZM61.07 209.72l2.77-2.77c.38-.38.59-.88.59-1.41a2.006 2.006 0 0 0-3.42-1.42l-2.76 2.77-2.77-2.77a2.004 2.004 0 0 0-3.42 1.42c0 .54.21 1.03.59 1.41l2.77 2.77-2.77 2.77c-.38.37-.59.88-.59 1.41s.21 1.04.59 1.41c.38.38.88.59 1.41.59s1.04-.21 1.42-.59l2.77-2.76 2.76 2.76c.38.38.88.59 1.42.59s1.03-.21 1.41-.59c.38-.37.59-.88.59-1.41s-.21-1.04-.59-1.41l-2.77-2.77Z"/></g><g id="Layer_4" data-name="Layer 4"><path class="cls-1" d="M261.34 186.16c0 7.14-48.67 12.92-108.71 12.92s-108.7-5.78-108.7-12.92c0-4.32 17.78-8.13 45.11-10.48.66-.06 1.33-.11 2-.17v9.15c0 .41.33.73.73.73H203.7c.41 0 .73-.33.73-.73v-9.86c.67.04 1.34.09 2 .13 32.8 2.22 54.91 6.42 54.91 11.23Z"/><rect class="cls-1" x="110.1" y="55.64" width="99.76" height="11.2" rx="1.73" ry="1.73"/><g id="Group_3443" data-name="Group 3443" style="opacity:.5"><rect id="Rectangle_4019" data-name="Rectangle 4019" class="cls-2" x="98.29" y="121.72" width="8" height="8.86" rx="1.39" ry="1.39"/><rect id="Rectangle_4020" data-name="Rectangle 4020" class="cls-2" x="98.29" y="135.9" width="8" height="8.86" rx="1.39" ry="1.39"/><rect id="Rectangle_4021" data-name="Rectangle 4021" class="cls-2" x="98.29" y="149.78" width="8" height="8.86" rx="1.39" ry="1.39"/></g><path class="cls-2" d="M208.13 55.06H190.2v-8.47c0-1.51-1.23-2.73-2.73-2.73H132.5c-1.51 0-2.73 1.23-2.73 2.73v8.47h-17.93c-1.51 0-2.73 1.23-2.73 2.73v7.74c0 1.51 1.23 2.73 2.73 2.73h1.7v46.89H91.79c-1.51 0-2.73 1.23-2.73 2.73v66.78c0 1.51 1.23 2.73 2.73 2.73h111.92c1.51 0 2.73-1.23 2.73-2.73V68.26h1.7c1.51 0 2.73-1.23 2.73-2.73v-7.74c0-1.51-1.23-2.73-2.73-2.73Zm-94.6 130.33H91.78c-.4 0-.73-.33-.73-.73v-66.78c0-.4.33-.73.73-.73h21.75v68.24Zm18.24-138.81c0-.4.33-.73.73-.73h54.97c.4 0 .73.33.73.73v8.47h-56.43v-8.47Zm72.67 138.07c0 .4-.33.73-.73.73h-88.18V68.26h88.91v116.39Zm4.43-119.12c0 .4-.33.73-.73.73h-96.3c-.4 0-.73-.33-.73-.73v-7.74c0-.4.33-.73.73-.73h96.3c.4 0 .73.33.73.73v7.74Z"/><path id="Rectangle_4017" data-name="Rectangle 4017" class="cls-3" d="M147.72 162.29h24.53c.77 0 1.39.62 1.39 1.39v22.23h-27.3v-22.23c0-.77.62-1.39 1.39-1.39Z"/><rect id="Rectangle_4008" data-name="Rectangle 4008" class="cls-3" x="129.73" y="77.56" width="11.81" height="17.71" rx="1.39" ry="1.39"/><rect id="Rectangle_4013" data-name="Rectangle 4013" class="cls-3" x="129.73" y="106.01" width="11.81" height="17.71" rx="1.39" ry="1.39"/><rect id="Rectangle_4016" data-name="Rectangle 4016" class="cls-3" x="129.73" y="134.47" width="11.81" height="17.71" rx="1.39" ry="1.39"/><rect id="Rectangle_4009" data-name="Rectangle 4009" class="cls-3" x="154.08" y="77.56" width="11.81" height="17.71" rx="1.39" ry="1.39"/><rect id="Rectangle_4012" data-name="Rectangle 4012" class="cls-3" x="154.08" y="106.01" width="11.81" height="17.71" rx="1.39" ry="1.39"/><rect id="Rectangle_4015" data-name="Rectangle 4015" class="cls-3" x="154.08" y="134" width="11.81" height="17.71" rx="1.39" ry="1.39"/><rect id="Rectangle_4010" data-name="Rectangle 4010" class="cls-3" x="178.43" y="77.56" width="11.81" height="17.71" rx="1.39" ry="1.39"/><rect id="Rectangle_4011" data-name="Rectangle 4011" class="cls-3" x="178.43" y="106.01" width="11.81" height="17.71" rx="1.39" ry="1.39"/><rect id="Rectangle_4014" data-name="Rectangle 4014" class="cls-3" x="178.43" y="134" width="11.81" height="17.71" rx="1.39" ry="1.39"/><path id="Rectangle_4022" data-name="Rectangle 4022" class="cls-3" d="M96.99 168.04h10.6c.77 0 1.39.62 1.39 1.39v16.73H95.6v-16.73c0-.77.62-1.39 1.39-1.39Z"/></g></svg>