<svg width="0" height="0" class="hidden" style="display: none">
    <svg xmlns="http://www.w3.org/2000/svg" viewBox="0 0 50 50" id="ic_notices_important_warning">
        <path d="M25,0A25,25,0,1,0,50,25,25,25,0,0,0,25,0ZM38.79,35.83a1.23,1.23,0,0,1-1.08.62H12.57a1.25,1.25,0,0,1-1.09-1.86L24.05,12a1.25,1.25,0,0,1,2.18,0L38.81,34.59A1.25,1.25,0,0,1,38.79,35.83Z"/>
        <path d="M14.7,34H35.59L25.14,15.14Zm10.44-1.27A1.27,1.27,0,0,1,24,31.92a1.33,1.33,0,0,1-.09-.49,1.3,1.3,0,0,1,.09-.49,1.27,1.27,0,0,1,1.16-.77,1.26,1.26,0,1,1,0,2.51ZM26,20.11v7.55a.9.9,0,0,1-1.8,0V20.11a.9.9,0,0,1,1.8,0Z"/>
    </svg>
</svg>
